<svg width="425" height="240" viewBox="0 0 425 240" fill="none" xmlns="http://www.w3.org/2000/svg">
<path fill-rule="evenodd" clip-rule="evenodd" d="M50 112.348V133.952H64.2452H78.4903V130.734V127.516H67.6916H56.8928V109.13V90.7437H53.4464H50V112.348ZM93.195 112.348V133.952H108.087C122.757 133.952 122.974 133.947 122.677 133.659C122.511 133.497 120.626 132.049 118.488 130.441L114.601 127.516H107.344H100.088V121.158V114.799H108.972H117.856V111.582V108.364H108.972H100.088V102.771V97.1789H111.652H123.217V93.9613V90.7437H108.206H93.195V112.348ZM136.696 93.9613V97.1789H143.819H150.942V115.565V133.952H154.388H157.834V115.565V97.1789H165.034H172.233V93.9613V90.7437H154.465H136.696V93.9613ZM186.937 111.658C186.937 123.161 186.989 132.569 187.052 132.566C187.116 132.562 188.666 130.726 190.499 128.487L193.83 124.415V107.579V90.7437H190.384H186.937V111.658ZM216.148 140.133C216.725 141.105 223.511 150.028 223.651 150C223.792 149.971 229.564 142.471 231.078 140.349L231.379 139.927H223.702C217.313 139.927 216.046 139.962 216.148 140.133Z" fill="#EAE8DD"/>
<path fill-rule="evenodd" clip-rule="evenodd" d="M217.583 97.3197C214.544 101.368 212.058 104.716 212.058 104.76C212.058 104.804 217.055 104.84 223.163 104.84C229.271 104.84 234.268 104.805 234.268 104.761C234.268 104.622 223.386 90.0561 223.245 90.007C223.17 89.981 220.622 93.2717 217.583 97.3197ZM354.892 90.0833C349.004 90.8467 344.954 93.7289 343.551 98.1539C342.502 101.462 342.856 105.518 344.427 108.179C345.132 109.373 346.704 110.915 348.106 111.788C350.486 113.271 352.998 114.113 358.256 115.194C362.247 116.014 363.433 116.347 364.778 117.024C367.2 118.244 368.332 120.518 367.866 123.233C367.418 125.849 365.829 127.414 362.781 128.242C361.259 128.655 356.876 128.604 355.199 128.154C351.519 127.166 349.124 124.901 348.522 121.839C348.423 121.338 348.3 120.929 348.248 120.93C348.195 120.93 346.705 121.332 344.936 121.821L341.719 122.711L341.77 123.161C341.799 123.407 342.03 124.245 342.286 125.022C343.995 130.217 348.379 133.508 354.892 134.486C356.906 134.788 361.447 134.789 363.47 134.488C369.174 133.637 372.928 130.895 374.376 126.521C374.736 125.433 374.789 124.997 374.847 122.651C374.925 119.462 374.727 118.35 373.717 116.334C372.507 113.914 370.292 112.058 367.146 110.824C365.499 110.179 363.869 109.749 359.834 108.897C353.937 107.651 351.626 106.552 350.585 104.497C349.2 101.764 350.249 98.4476 352.92 97.1147C354.419 96.3666 355.446 96.1829 358.109 96.1871C360.862 96.1914 361.793 96.3696 363.652 97.2476C365.507 98.1237 366.959 99.7576 367.707 101.808C367.887 102.304 368.111 102.682 368.204 102.648C368.296 102.614 369.771 102.215 371.481 101.762C375.054 100.816 374.769 101.134 373.949 99.0061C373.022 96.6015 370.893 93.9717 368.777 92.618C365.846 90.7422 362.646 89.9629 358.032 90.0014C356.558 90.0136 355.145 90.0505 354.892 90.0833ZM252.036 101.169V111.617L253.031 110.686C254.352 109.45 255.885 108.711 257.624 108.474L258.929 108.296V102.727V97.1576L264.175 97.2137C269.169 97.267 269.473 97.2868 270.494 97.6248C272.048 98.1392 272.671 98.4948 273.64 99.4192C275.433 101.13 276.167 103.976 275.558 106.852C275.12 108.915 274.003 110.39 272.208 111.271C270.47 112.125 269.669 112.221 263.439 112.328L257.763 112.424L256.546 113.024C255.136 113.72 253.584 115.174 252.92 116.42C252.197 117.777 252.036 118.739 252.038 121.688L252.041 124.376L255.446 128.513L258.852 132.649L258.892 125.333L258.932 118.017H262.739H266.547L271.124 125.984L275.702 133.951L279.799 133.951C282.053 133.952 283.895 133.9 283.894 133.837C283.893 133.774 281.59 129.897 278.776 125.222L273.66 116.722L274.757 116.321C276.915 115.532 278.453 114.564 279.765 113.171C281.894 110.909 282.826 108.282 282.822 104.558C282.815 98.2348 279.444 93.678 273.351 91.7559C270.584 90.8828 270.281 90.8595 260.805 90.788L252.036 90.7216V101.169ZM295.078 93.9615V97.1791H302.201H309.323V115.565V133.952H312.846H316.369V115.565V97.1791H323.492H330.614V93.9615V90.7439H312.846H295.078V93.9615ZM205.503 113.292C202.197 117.601 199.511 121.146 199.534 121.169C199.558 121.193 201.998 121.144 204.958 121.061C207.918 120.979 210.685 120.932 211.107 120.958L211.876 121.005L217.447 128.501C220.511 132.624 223.085 136.016 223.167 136.038C223.249 136.06 225.761 132.774 228.749 128.735L234.182 121.391L240.261 121.351L246.339 121.311L240.676 113.497C237.562 109.199 234.963 105.631 234.902 105.568C234.84 105.506 232.175 109 228.978 113.334C225.782 117.667 223.159 121.2 223.15 121.185C223.039 120.998 211.819 105.784 211.691 105.646C211.554 105.499 210.154 107.229 205.503 113.292Z" fill="#EAE8DD"/>
</svg>
